<?xml version="1.0" standalone="no"?><!DOCTYPE svg PUBLIC "-//W3C//DTD SVG 1.1//EN" "http://www.w3.org/Graphics/SVG/1.1/DTD/svg11.dtd"><svg t="1558581510960" class="icon" style="" viewBox="0 0 1529 1024" version="1.1" xmlns="http://www.w3.org/2000/svg" p-id="7736" xmlns:xlink="http://www.w3.org/1999/xlink" width="298.6328125" height="200"><defs><style type="text/css"></style></defs><path d="M1414.105615 374.093737a380.667463 380.667463 0 0 0-242.654297-113.125546 516.983746 516.983746 0 0 0-177.041479-184.39464A509.064958 509.064958 0 0 0 226.28738 411.425168 312.226507 312.226507 0 0 0 267.578205 1020.606234v3.393766h878.985493A380.667463 380.667463 0 0 0 1414.105615 374.093737z m-269.2388 565.627731H308.869029a229.644859 229.644859 0 0 1-38.462686-452.502185l28.847015-5.656277 3.959394-28.847014a428.74582 428.74582 0 0 1 649.340635-304.307719 434.402097 434.402097 0 0 1 126.700611 119.913079 395.939412 395.939412 0 0 0-106.338013 36.200174 382.929974 382.929974 0 0 0-132.356889 113.125547 41.290824 41.290824 0 0 0 64.481561 48.078357 298.651442 298.651442 0 1 1 239.826158 476.258549z" fill="#1296db" p-id="7737"></path></svg>